<svg id="Layer_1" data-name="Layer 1" xmlns="http://www.w3.org/2000/svg" viewBox="0 0 138 69"><title>american_muscle_logo_m</title><polygon points="26.46 47.46 7.55 47.46 10.77 42.8 18.86 31.09 18.91 31.02 18.9 31.03 30.27 41.13 26.46 47.46" style="fill:#1e91cb"/><polygon points="51.23 47.46 50.86 41.13 67.65 31.07 69.89 47.46 51.23 47.46" style="fill:#1e91cb"/><polygon points="67.39 29.21 50.16 29.21 49.03 9.92 37.44 29.21 20.16 29.21 40.33 0 63.16 0 67.39 29.21" style="fill:#1e91cb"/><polygon points="129.84 31.09 126.06 47.46 108.72 47.46 117.22 15.09 115.8 15.09 97.55 47.46 83.39 47.46 82.25 15.09 80.85 15.09 72.35 47.46 68.53 22.8 65.41 0 94.94 0 95.27 28.93 111.44 0 138 0 129.84 31.09" style="fill:#f48220"/><path d="M0,68.69L6.77,53.43h3.86l0.21,15.26H7.75l0.07-3.84H4.51L2.94,68.69H0Zm5.45-6.13H7.9L8,56.16Z" style="fill:#424242"/><path d="M11.62,68.69L14.1,57.23h2.49L16.3,58.54a4,4,0,0,1,1.36-1.26,3.94,3.94,0,0,1,1.79-.36,2.4,2.4,0,0,1,1.4.38,1.59,1.59,0,0,1,.67,1.07,4.71,4.71,0,0,1,1.39-1.11,3.58,3.58,0,0,1,1.59-.34,2.19,2.19,0,0,1,1.91.75,2.77,2.77,0,0,1,.22,2.22l-1.9,8.81H22.1l1.58-7.33a3.34,3.34,0,0,0,.1-1.75,1,1,0,0,0-.95-0.4,1.38,1.38,0,0,0-1.1.45,3.84,3.84,0,0,0-.65,1.64L19.5,68.69H16.85l1.61-7.45a3.05,3.05,0,0,0,.07-1.6,0.84,0.84,0,0,0-.86-0.43,1.46,1.46,0,0,0-1.14.46,3.35,3.35,0,0,0-.65,1.53l-1.62,7.49H11.62Z" style="fill:#424242"/><path d="M32.35,64.76h2.53q0,0.08,0,.23c0,0.1,0,.17,0,0.22a4.85,4.85,0,0,1-1.57,2.88A5,5,0,0,1,30,69a4.83,4.83,0,0,1-1.76-.27,2.05,2.05,0,0,1-1-.83,3.17,3.17,0,0,1-.43-1.68,19.56,19.56,0,0,1,.55-3.64,17.5,17.5,0,0,1,.85-3,4.48,4.48,0,0,1,1-1.48,4.1,4.1,0,0,1,1.5-.9,6,6,0,0,1,2-.3,4.3,4.3,0,0,1,1.78.32,2.3,2.3,0,0,1,1.08,1,3,3,0,0,1,.31,1.44,15.32,15.32,0,0,1-.42,2.8l-0.19.87H30a2.55,2.55,0,0,0-.08.27l-0.11.46a5.83,5.83,0,0,0-.19,2.29,0.82,0.82,0,0,0,.9.65,1.41,1.41,0,0,0,1.15-.53A4.13,4.13,0,0,0,32.35,64.76Zm-2-3.25H33L33.07,61a3,3,0,0,0,.06-1.63,0.9,0.9,0,0,0-.93-0.45,1.39,1.39,0,0,0-1.11.46A3.73,3.73,0,0,0,30.45,61C30.41,61.24,30.38,61.4,30.36,61.51Z" style="fill:#424242"/><path d="M35.57,68.69L38,57.23h2.57l-0.4,1.86a6.31,6.31,0,0,1,1.54-1.65,2.92,2.92,0,0,1,1.64-.51l-0.7,3.22-0.29,0H42a2.26,2.26,0,0,0-1.48.51,2.33,2.33,0,0,0-.8,1.36l-1.45,6.72H35.57Z" style="fill:#424242"/><path d="M41.85,68.69l2.48-11.47H47L44.51,68.69H41.85Zm2.78-12.89,0.51-2.38h2.67l-0.51,2.38H44.63Z" style="fill:#424242"/><path d="M54.5,64.19c0,0.08,0,.16,0,0.25s0,0.22-.08.39A5.71,5.71,0,0,1,52.78,68a4.42,4.42,0,0,1-3.06,1q-2.18,0-2.78-1.28T47.11,63A11,11,0,0,1,49,58.21a4.22,4.22,0,0,1,3.33-1.29,3.11,3.11,0,0,1,2.62.94,3.56,3.56,0,0,1,.28,2.91l-0.09.41H52.58l0.06-.26a2.92,2.92,0,0,0,.05-1.5A0.74,0.74,0,0,0,51.91,59a1.22,1.22,0,0,0-1,.45,3.54,3.54,0,0,0-.6,1.49l-0.85,4a3.52,3.52,0,0,0-.09,1.65,0.74,0.74,0,0,0,.79.47,1.23,1.23,0,0,0,1.06-.54,5.9,5.9,0,0,0,.7-2L52,64.18H54.5Z" style="fill:#424242"/><path d="M60.41,68.69a1,1,0,0,1-.07-0.39c0-.17,0-0.41,0-0.72A3.89,3.89,0,0,1,59,68.64,3.7,3.7,0,0,1,57.4,69a2,2,0,0,1-1.87-.88,3.28,3.28,0,0,1-.21-2.45,4.47,4.47,0,0,1,1.13-2.26,8.91,8.91,0,0,1,2.92-1.68L60,61.5q1.72-.67,1.91-1.56a1,1,0,0,0-.13-0.84,1,1,0,0,0-.82-0.29,1.67,1.67,0,0,0-1.16.39,2.2,2.2,0,0,0-.61,1.21l0,0.23H56.51a4.62,4.62,0,0,1,1.57-2.81,5.25,5.25,0,0,1,3.26-.88q2.11,0,2.79.81t0.24,2.83L63,67a3.88,3.88,0,0,0-.1.87,2.56,2.56,0,0,0,.13.78H60.41Zm0.93-6A9.68,9.68,0,0,0,59,64a2.59,2.59,0,0,0-.84,1.41,1.64,1.64,0,0,0,0,1.13,0.86,0.86,0,0,0,.82.36,1.46,1.46,0,0,0,1.18-.6,4.43,4.43,0,0,0,.74-1.81Z" style="fill:#424242"/><path d="M64.26,68.69l2.48-11.47h2.63l-0.25,1.16a4.14,4.14,0,0,1,1.27-1.1,3.07,3.07,0,0,1,1.47-.37,2.05,2.05,0,0,1,1.78.71,2.52,2.52,0,0,1,.23,2.05l-1.94,9H69.33L71,61a2.68,2.68,0,0,0,0-1.42,0.75,0.75,0,0,0-.78-0.41,1.29,1.29,0,0,0-1.07.51,4.36,4.36,0,0,0-.66,1.71l-1.58,7.3H64.26Z" style="fill:#424242"/><path d="M73.73,68.69L77,53.43h4.33l0,9.88,4.25-9.88h4.33l-3.3,15.26H83.87l3-13.54-5.8,13.54H79.3l0-13.54L76.49,68.69H73.73Z" style="fill:#424242"/><path d="M98.58,57.23L96.1,68.69H93.47l0.25-1.14a4,4,0,0,1-1.26,1.08A3.14,3.14,0,0,1,91,69a2,2,0,0,1-1.77-.71A2.55,2.55,0,0,1,89,66.24l1.94-9h2.59l-1.62,7.49a3.17,3.17,0,0,0-.08,1.57,0.75,0.75,0,0,0,.79.43,1.28,1.28,0,0,0,1.06-.48,4.33,4.33,0,0,0,.64-1.7l1.58-7.32h2.7Z" style="fill:#424242"/><path d="M98.22,64.88h2.41l-0.07.33a2.26,2.26,0,0,0,0,1.41,1,1,0,0,0,.93.42,1.5,1.5,0,0,0,.95-0.3,1.36,1.36,0,0,0,.5-0.82,1.73,1.73,0,0,0-1-1.51l-0.44-.34L101.42,64q-2.51-2-2.1-3.92a3.69,3.69,0,0,1,1.46-2.33,5,5,0,0,1,3-.8,2.94,2.94,0,0,1,2.45.89,3.21,3.21,0,0,1,.3,2.69l-0.05.24h-2.36l0.05-.24a1.71,1.71,0,0,0-.06-1.22,1,1,0,0,0-.93-0.39,1.39,1.39,0,0,0-.86.27,1.19,1.19,0,0,0-.45.72,1,1,0,0,0,.1.75,4.13,4.13,0,0,0,1,1L103.43,62q2.5,1.9,2.09,3.82a3.75,3.75,0,0,1-1.5,2.36,5,5,0,0,1-3,.83,3.22,3.22,0,0,1-2.63-.89,3.29,3.29,0,0,1-.31-2.78l0.06-.22C98.19,65,98.21,64.93,98.22,64.88Z" style="fill:#424242"/><path d="M114.49,64.19c0,0.08,0,.16,0,0.25s0,0.22-.08.39a5.71,5.71,0,0,1-1.6,3.15,4.42,4.42,0,0,1-3.06,1q-2.18,0-2.78-1.28T107.1,63A11,11,0,0,1,109,58.21a4.22,4.22,0,0,1,3.33-1.29,3.11,3.11,0,0,1,2.62.94,3.56,3.56,0,0,1,.28,2.91l-0.09.41h-2.57l0.06-.26a2.92,2.92,0,0,0,.05-1.5A0.74,0.74,0,0,0,111.9,59a1.22,1.22,0,0,0-1,.45,3.54,3.54,0,0,0-.6,1.49l-0.85,4a3.52,3.52,0,0,0-.09,1.65,0.74,0.74,0,0,0,.79.47,1.23,1.23,0,0,0,1.06-.54,5.9,5.9,0,0,0,.7-2l0.05-.25h2.52Z" style="fill:#424242"/><path d="M114.9,68.69l3.3-15.26h2.67l-3.3,15.26H114.9Z" style="fill:#424242"/><path d="M125.23,64.76h2.53q0,0.08,0,.23c0,0.1,0,.17,0,0.22a4.85,4.85,0,0,1-1.57,2.88,5,5,0,0,1-3.2.92,4.83,4.83,0,0,1-1.76-.27,2.05,2.05,0,0,1-1-.83,3.17,3.17,0,0,1-.43-1.68,19.56,19.56,0,0,1,.55-3.64,17.5,17.5,0,0,1,.85-3,4.48,4.48,0,0,1,1-1.48,4.1,4.1,0,0,1,1.5-.9,6,6,0,0,1,2-.3,4.3,4.3,0,0,1,1.78.32,2.3,2.3,0,0,1,1.08,1,3,3,0,0,1,.31,1.44,15.32,15.32,0,0,1-.42,2.8l-0.19.87h-5.27a2.55,2.55,0,0,0-.08.27l-0.11.46a5.83,5.83,0,0,0-.19,2.29,0.82,0.82,0,0,0,.9.65,1.41,1.41,0,0,0,1.15-.53A4.13,4.13,0,0,0,125.23,64.76Zm-2-3.25h2.61L126,61A3,3,0,0,0,126,59.4a0.9,0.9,0,0,0-.93-0.45,1.39,1.39,0,0,0-1.11.46,3.73,3.73,0,0,0-.65,1.61C123.29,61.24,123.26,61.4,123.24,61.51Z" style="fill:#424242"/></svg>